<svg width="817" height="446" viewBox="0 0 817 446" fill="none" xmlns="http://www.w3.org/2000/svg">
<rect x="0.5" y="0.5" width="816" height="445" fill="white" fill-opacity="0.01" style="mix-blend-mode:multiply"/>
<rect x="0.5" y="0.5" width="816" height="445" stroke="#0F62FE"/>
<rect x="1" y="1" width="815" height="444" fill="white"/>
<rect x="1" y="1" width="815" height="444" fill="white" style="mix-blend-mode:multiply"/>
<g clip-path="url(#clip0_3858_448)">
<path d="M61.18 29H56.742V27.516H58.03V20.712H56.742V19.228H61.18V20.712H59.878V27.516H61.18V29ZM63.2279 29V19.228H67.7499C69.3599 19.228 70.3399 20.222 70.3399 21.734C70.3399 23.218 69.4859 23.778 68.5899 23.834V23.918C69.4439 23.932 70.7039 24.534 70.7039 26.2C70.7039 27.768 69.6259 29 68.1839 29H63.2279ZM65.0759 24.814V27.432H67.6519C68.3519 27.432 68.7719 27.054 68.7719 26.368V25.892C68.7719 25.206 68.3519 24.814 67.6519 24.814H65.0759ZM65.0759 20.796V23.302H67.3579C68.0299 23.302 68.4219 22.91 68.4219 22.266V21.832C68.4219 21.174 68.0299 20.796 67.3579 20.796H65.0759ZM72.6711 29V19.228H74.7571L77.2631 24.002H77.3191L79.7971 19.228H81.7991V29H80.0491V21.986H79.9931L79.2371 23.54L77.2351 27.236L75.2331 23.54L74.4771 21.986H74.4211V29H72.6711ZM91.5234 29.168C88.9474 29.168 87.3094 27.474 87.3094 24.184C87.3094 20.894 88.9474 19.06 91.5234 19.06C93.2734 19.06 94.4074 19.802 95.0934 21.314L93.5114 22.154C93.2314 21.286 92.6154 20.698 91.5234 20.698C90.1514 20.698 89.2694 21.692 89.2694 23.358V24.898C89.2694 26.578 90.1514 27.53 91.5234 27.53C92.6294 27.53 93.3154 26.858 93.6374 25.976L95.1354 26.858C94.4354 28.314 93.2734 29.168 91.5234 29.168ZM99.5178 29H98.5518C97.3338 29 96.7598 28.356 96.7598 27.236V18.64H98.5518V27.572H99.5178V29ZM103.933 29.168C101.847 29.168 100.545 27.684 100.545 25.332C100.545 22.994 101.847 21.524 103.933 21.524C106.033 21.524 107.335 22.994 107.335 25.332C107.335 27.684 106.033 29.168 103.933 29.168ZM103.933 27.726C104.871 27.726 105.459 27.124 105.459 26.018V24.66C105.459 23.568 104.871 22.966 103.933 22.966C103.009 22.966 102.421 23.568 102.421 24.66V26.018C102.421 27.124 103.009 27.726 103.933 27.726ZM113.452 29V27.782H113.382C113.13 28.51 112.542 29.168 111.338 29.168C109.84 29.168 109 28.132 109 26.312V21.692H110.792V26.13C110.792 27.138 111.17 27.684 112.024 27.684C112.738 27.684 113.452 27.306 113.452 26.522V21.692H115.244V29H113.452ZM122.01 29V27.782H121.94C121.674 28.608 120.89 29.168 119.924 29.168C118.09 29.168 117.068 27.782 117.068 25.332C117.068 22.896 118.09 21.524 119.924 21.524C120.89 21.524 121.688 22.056 121.94 22.896H122.01V18.64H123.802V29H122.01ZM120.498 27.684C121.352 27.684 122.01 27.25 122.01 26.494V24.17C122.01 23.456 121.352 22.994 120.498 22.994C119.574 22.994 118.944 23.68 118.944 24.716V25.976C118.944 27.012 119.574 27.684 120.498 27.684Z" fill="black"/>
<g clip-path="url(#clip1_3858_448)">
<rect width="24" height="24" transform="translate(16 12)" fill="white" fill-opacity="0.01" style="mix-blend-mode:multiply"/>
<path d="M34.4354 22.2375C33.69 20.8408 32.5107 19.7242 31.0754 19.0562C29.64 18.3882 28.0264 18.205 26.4778 18.5342C24.9292 18.8634 23.5296 19.6871 22.49 20.8811C21.4505 22.0752 20.8273 23.5749 20.7145 25.154C19.4267 25.2925 18.2409 25.9194 17.4012 26.9055C16.5616 27.8917 16.1318 29.1622 16.2004 30.4557C16.269 31.7491 16.8308 32.967 17.7701 33.8588C18.7094 34.7507 19.9548 35.2485 21.25 35.25H33.25C34.8875 35.251 36.4661 34.6396 37.6757 33.5359C38.8852 32.4322 39.6383 30.916 39.7868 29.2853C39.9354 27.6545 39.4687 26.0272 38.4785 24.7231C37.4882 23.419 36.0461 22.5324 34.4354 22.2375ZM33.25 34.125H21.25C20.2522 34.1273 19.2909 33.7498 18.5613 33.069C17.8317 32.3883 17.3885 31.4554 17.3218 30.4598C17.255 29.4642 17.5697 28.4806 18.2018 27.7085C18.834 26.9365 19.7363 26.434 20.7255 26.303C20.8049 27.2956 21.0865 28.2613 21.5532 29.1409C21.587 29.2079 21.6339 29.2676 21.6911 29.3162C21.7483 29.3649 21.8146 29.4016 21.8862 29.4242C21.9578 29.4468 22.0332 29.4548 22.108 29.4478C22.1827 29.4408 22.2553 29.4189 22.3215 29.3834C22.3877 29.3479 22.446 29.2995 22.4932 29.2411C22.5404 29.1827 22.5754 29.1154 22.5961 29.0432C22.6169 28.9711 22.623 28.8955 22.6141 28.8209C22.6051 28.7464 22.5814 28.6744 22.5442 28.6091C21.8007 27.2192 21.6157 25.598 22.027 24.0763C22.4382 22.5546 23.4147 21.2473 24.7572 20.4211C26.0996 19.595 27.7067 19.3123 29.2504 19.6308C30.7942 19.9493 32.1582 20.845 33.064 22.135C32.1651 22.1598 31.2809 22.369 30.4662 22.7495C29.6515 23.1301 28.9236 23.674 28.3277 24.3475C28.277 24.4026 28.2378 24.4672 28.2123 24.5377C28.1869 24.6081 28.1758 24.6829 28.1797 24.7577C28.1836 24.8325 28.2023 24.9057 28.2349 24.9732C28.2674 25.0406 28.3131 25.1009 28.3693 25.1504C28.4254 25.2 28.4909 25.2378 28.5619 25.2617C28.6328 25.2856 28.7079 25.2951 28.7826 25.2896C28.8572 25.2842 28.9301 25.2638 28.9968 25.2298C29.0635 25.1958 29.1228 25.1489 29.1711 25.0916C29.772 24.4101 30.5341 23.8899 31.3879 23.5788C32.2416 23.2676 33.1597 23.1754 34.0582 23.3104C34.9568 23.4455 35.8072 23.8036 36.5316 24.3521C37.2561 24.9005 37.8316 25.6217 38.2056 26.4498C38.5795 27.278 38.74 28.1866 38.6722 29.0928C38.6045 29.9989 38.3108 30.8736 37.8179 31.637C37.325 32.4003 36.6487 33.028 35.8508 33.4626C35.0528 33.8973 34.1586 34.125 33.25 34.125Z" fill="black"/>
<path d="M39.9237 19.6911C39.8864 19.6264 39.8367 19.5696 39.7774 19.5241C39.7181 19.4786 39.6504 19.4452 39.5782 19.4259C39.506 19.4066 39.4307 19.4016 39.3566 19.4114C39.2826 19.4212 39.2111 19.4455 39.1464 19.4829L36.8814 20.7908C36.8149 20.8272 36.7563 20.8765 36.7091 20.9358C36.662 20.9951 36.6271 21.0633 36.6066 21.1363C36.5861 21.2093 36.5805 21.2857 36.5899 21.3609C36.5993 21.4361 36.6237 21.5087 36.6616 21.5744C36.6995 21.64 36.7501 21.6975 36.8105 21.7433C36.8709 21.7891 36.9399 21.8224 37.0133 21.8412C37.0868 21.86 37.1632 21.864 37.2382 21.8528C37.3132 21.8417 37.3852 21.8156 37.45 21.7763L39.715 20.4684C39.8457 20.393 39.9412 20.2688 39.9803 20.123C40.0195 19.9772 39.9991 19.8219 39.9237 19.6911Z" fill="black"/>
<path d="M33.0073 17.9025C33.072 17.9399 33.1434 17.9642 33.2175 17.974C33.2916 17.9838 33.3669 17.9789 33.4391 17.9595C33.5113 17.9402 33.579 17.9068 33.6382 17.8613C33.6975 17.8158 33.7473 17.7591 33.7846 17.6943L35.0924 15.4293C35.1666 15.2987 35.1861 15.1441 35.1467 14.9992C35.1073 14.8543 35.0122 14.7308 34.8821 14.6557C34.7521 14.5806 34.5976 14.56 34.4524 14.5983C34.3072 14.6366 34.183 14.7307 34.1069 14.8602L32.7991 17.1252C32.7237 17.2559 32.7032 17.4112 32.7422 17.557C32.7813 17.7027 32.8766 17.827 33.0073 17.9025Z" fill="black"/>
<path d="M28 16.5608C28.1509 16.5608 28.2956 16.5008 28.4024 16.3941C28.5091 16.2874 28.5691 16.1427 28.5691 15.9917V13.376C28.57 13.3008 28.5559 13.2261 28.5277 13.1563C28.4995 13.0865 28.4577 13.023 28.4047 12.9694C28.3518 12.9159 28.2888 12.8734 28.2193 12.8444C28.1499 12.8154 28.0753 12.8004 28 12.8004C27.9247 12.8004 27.8502 12.8154 27.7807 12.8444C27.7113 12.8734 27.6482 12.9159 27.5953 12.9694C27.5424 13.023 27.5006 13.0865 27.4724 13.1563C27.4442 13.2261 27.4301 13.3008 27.431 13.376V15.9917C27.431 16.1427 27.4909 16.2874 27.5977 16.3941C27.7044 16.5008 27.8491 16.5608 28 16.5608Z" fill="black"/>
<path d="M22.2155 17.6942C22.2915 17.8237 22.4157 17.9178 22.5609 17.9561C22.7061 17.9944 22.8606 17.9738 22.9906 17.8987C23.1207 17.8236 23.2158 17.7001 23.2552 17.5552C23.2946 17.4103 23.2751 17.2557 23.201 17.1251L21.8931 14.8601C21.8561 14.7948 21.8064 14.7375 21.7471 14.6914C21.6878 14.6454 21.62 14.6115 21.5475 14.5918C21.4751 14.5721 21.3994 14.567 21.325 14.5766C21.2505 14.5863 21.1787 14.6106 21.1137 14.6482C21.0487 14.6857 20.9917 14.7358 20.9461 14.7954C20.9005 14.8551 20.8672 14.9232 20.848 14.9958C20.8289 15.0684 20.8243 15.144 20.8345 15.2184C20.8447 15.2928 20.8696 15.3644 20.9076 15.4292L22.2155 17.6942Z" fill="black"/>
<path d="M19.1189 20.7908L16.8539 19.4829C16.7891 19.4449 16.7175 19.42 16.6431 19.4098C16.5687 19.3996 16.4931 19.4042 16.4205 19.4233C16.3479 19.4425 16.2798 19.4758 16.2201 19.5214C16.1605 19.567 16.1104 19.624 16.0729 19.689C16.0353 19.754 16.011 19.8258 16.0013 19.9003C15.9917 19.9747 15.9968 20.0504 16.0165 20.1228C16.0362 20.1953 16.0701 20.2631 16.1161 20.3224C16.1621 20.3817 16.2195 20.4314 16.2848 20.4684L18.55 21.7763C18.6147 21.8143 18.6864 21.8392 18.7607 21.8494C18.8351 21.8596 18.9108 21.855 18.9834 21.8359C19.056 21.8167 19.1241 21.7834 19.1837 21.7378C19.2434 21.6922 19.2935 21.6352 19.331 21.5702C19.3685 21.5052 19.3929 21.4334 19.4025 21.3589C19.4122 21.2845 19.407 21.2088 19.3873 21.1364C19.3676 21.0639 19.3338 20.9961 19.2878 20.9368C19.2417 20.8774 19.1842 20.8278 19.1189 20.7908Z" fill="black"/>
</g>
<line x1="2" y1="-8.74228e-08" x2="2" y2="48" stroke="#0F62FE" stroke-width="4"/>
</g>
<rect x="445.5" y="56.5" width="347" height="366" fill="white" fill-opacity="0.01" style="mix-blend-mode:multiply"/>
<rect x="445.5" y="56.5" width="347" height="366" stroke="#24A148"/>
<rect x="446" y="57" width="346" height="365" fill="white"/>
<rect x="446" y="57" width="346" height="365" fill="white" style="mix-blend-mode:multiply"/>
<g clip-path="url(#clip2_3858_448)">
<path d="M505.942 85.168C503.366 85.168 501.728 83.474 501.728 80.184C501.728 76.894 503.366 75.06 505.942 75.06C507.692 75.06 508.826 75.802 509.512 77.314L507.93 78.154C507.65 77.286 507.034 76.698 505.942 76.698C504.57 76.698 503.688 77.692 503.688 79.358V80.898C503.688 82.578 504.57 83.53 505.942 83.53C507.048 83.53 507.734 82.858 508.056 81.976L509.554 82.858C508.854 84.314 507.692 85.168 505.942 85.168ZM513.936 85H512.97C511.752 85 511.178 84.356 511.178 83.236V74.64H512.97V83.572H513.936V85ZM518.352 85.168C516.266 85.168 514.964 83.684 514.964 81.332C514.964 78.994 516.266 77.524 518.352 77.524C520.452 77.524 521.754 78.994 521.754 81.332C521.754 83.684 520.452 85.168 518.352 85.168ZM518.352 83.726C519.29 83.726 519.878 83.124 519.878 82.018V80.66C519.878 79.568 519.29 78.966 518.352 78.966C517.428 78.966 516.84 79.568 516.84 80.66V82.018C516.84 83.124 517.428 83.726 518.352 83.726ZM527.87 85V83.782H527.8C527.548 84.51 526.96 85.168 525.756 85.168C524.258 85.168 523.418 84.132 523.418 82.312V77.692H525.21V82.13C525.21 83.138 525.588 83.684 526.442 83.684C527.156 83.684 527.87 83.306 527.87 82.522V77.692H529.662V85H527.87ZM536.429 85V83.782H536.359C536.093 84.608 535.309 85.168 534.343 85.168C532.509 85.168 531.487 83.782 531.487 81.332C531.487 78.896 532.509 77.524 534.343 77.524C535.309 77.524 536.107 78.056 536.359 78.896H536.429V74.64H538.221V85H536.429ZM534.917 83.684C535.771 83.684 536.429 83.25 536.429 82.494V80.17C536.429 79.456 535.771 78.994 534.917 78.994C533.993 78.994 533.363 79.68 533.363 80.716V81.976C533.363 83.012 533.993 83.684 534.917 83.684ZM547.066 85.168C545.4 85.168 544.252 84.51 543.426 83.544L544.672 82.34C545.344 83.124 546.17 83.544 547.178 83.544C548.312 83.544 548.9 82.998 548.9 82.172C548.9 81.514 548.592 81.108 547.57 80.926L546.646 80.786C544.672 80.478 543.72 79.54 543.72 77.944C543.72 76.194 545.078 75.06 547.262 75.06C548.732 75.06 549.824 75.564 550.608 76.502L549.348 77.692C548.872 77.09 548.2 76.684 547.164 76.684C546.114 76.684 545.568 77.104 545.568 77.832C545.568 78.574 545.988 78.882 546.926 79.05L547.836 79.218C549.81 79.568 550.734 80.45 550.734 82.06C550.734 83.908 549.404 85.168 547.066 85.168ZM555.589 85.168C553.433 85.168 552.145 83.67 552.145 81.332C552.145 79.022 553.391 77.524 555.533 77.524C557.815 77.524 558.865 79.204 558.865 81.206V81.794H554.007V81.976C554.007 83.026 554.609 83.74 555.785 83.74C556.667 83.74 557.199 83.32 557.647 82.746L558.613 83.824C558.011 84.65 556.947 85.168 555.589 85.168ZM555.561 78.868C554.623 78.868 554.007 79.568 554.007 80.576V80.688H557.003V80.562C557.003 79.554 556.485 78.868 555.561 78.868ZM562.393 85H560.601V77.692H562.393V79.204H562.463C562.645 78.434 563.233 77.692 564.395 77.692H564.787V79.386H564.227C563.023 79.386 562.393 79.722 562.393 80.52V85ZM570.063 85H567.935L565.499 77.692H567.263L568.285 80.842L568.999 83.446H569.097L569.811 80.842L570.805 77.692H572.513L570.063 85ZM574.764 76.628C574.022 76.628 573.714 76.25 573.714 75.732V75.452C573.714 74.934 574.022 74.556 574.764 74.556C575.492 74.556 575.814 74.934 575.814 75.452V75.732C575.814 76.25 575.492 76.628 574.764 76.628ZM573.868 85V77.692H575.66V85H573.868ZM580.782 85.168C578.626 85.168 577.408 83.684 577.408 81.332C577.408 78.994 578.626 77.524 580.782 77.524C582.252 77.524 583.218 78.224 583.652 79.372L582.182 80.03C582.014 79.414 581.552 78.966 580.782 78.966C579.788 78.966 579.284 79.666 579.284 80.688V82.018C579.284 83.04 579.788 83.726 580.782 83.726C581.636 83.726 582.056 83.236 582.322 82.578L583.694 83.236C583.218 84.524 582.196 85.168 580.782 85.168ZM588.121 85.168C585.965 85.168 584.677 83.67 584.677 81.332C584.677 79.022 585.923 77.524 588.065 77.524C590.347 77.524 591.397 79.204 591.397 81.206V81.794H586.539V81.976C586.539 83.026 587.141 83.74 588.317 83.74C589.199 83.74 589.731 83.32 590.179 82.746L591.145 83.824C590.543 84.65 589.479 85.168 588.121 85.168ZM588.093 78.868C587.155 78.868 586.539 79.568 586.539 80.576V80.688H589.535V80.562C589.535 79.554 589.017 78.868 588.093 78.868ZM595.528 85.168C594.142 85.168 593.232 84.664 592.504 83.824L593.596 82.76C594.128 83.376 594.772 83.754 595.598 83.754C596.452 83.754 596.816 83.432 596.816 82.914C596.816 82.494 596.564 82.228 595.92 82.144L595.192 82.046C593.624 81.85 592.756 81.164 592.756 79.834C592.756 78.42 593.862 77.524 595.528 77.524C596.956 77.524 597.684 77.944 598.384 78.672L597.334 79.722C596.914 79.274 596.298 78.938 595.584 78.938C594.814 78.938 594.478 79.246 594.478 79.694C594.478 80.184 594.744 80.408 595.43 80.52L596.172 80.618C597.768 80.842 598.538 81.556 598.538 82.774C598.538 84.188 597.348 85.168 595.528 85.168Z" fill="black"/>
<g clip-path="url(#clip3_3858_448)">
<rect width="24" height="24" transform="translate(461 68)" fill="white" fill-opacity="0.01" style="mix-blend-mode:multiply"/>
<path d="M480.366 75.593C480.039 73.879 479.125 72.3328 477.78 71.2206C476.435 70.1084 474.745 69.4999 473 69.4999C471.255 69.4999 469.565 70.1084 468.22 71.2206C466.876 72.3328 465.961 73.879 465.634 75.593C464.25 75.8402 463.009 76.5965 462.156 77.7131C461.302 78.8296 460.898 80.2254 461.022 81.6253C461.146 83.0252 461.791 84.3278 462.828 85.2764C463.865 86.225 465.22 86.7507 466.625 86.75H467V85.25H466.625C465.556 85.2507 464.528 84.8359 463.759 84.0932C462.99 83.3505 462.539 82.338 462.503 81.2694C462.466 80.2008 462.846 79.1598 463.562 78.3661C464.279 77.5723 465.276 77.088 466.342 77.0154L466.97 76.9726L467.037 76.3475C467.198 74.878 467.895 73.5196 468.995 72.5327C470.096 71.5459 471.522 71.0001 473 71.0001C474.478 71.0001 475.904 71.5459 477.005 72.5327C478.105 73.5196 478.803 74.878 478.963 76.3475L479.031 76.9726L479.658 77.0154C480.725 77.088 481.721 77.5724 482.438 78.3661C483.154 79.1598 483.534 80.2009 483.498 81.2695C483.461 82.3381 483.01 83.3506 482.241 84.0933C481.472 84.836 480.444 85.2508 479.375 85.25H479V86.75H479.375C480.78 86.7507 482.135 86.225 483.172 85.2764C484.209 84.3279 484.854 83.0253 484.978 81.6253C485.102 80.2254 484.698 78.8296 483.844 77.7131C482.991 76.5965 481.75 75.8402 480.366 75.593Z" fill="black"/>
<path d="M478.25 84.5V83H476.674C476.577 82.5306 476.391 82.0842 476.125 81.6854L477.243 80.5679L476.182 79.5074L475.065 80.6249C474.666 80.359 474.219 80.1726 473.75 80.0759V78.5H472.25V80.0759C471.781 80.1726 471.334 80.3589 470.935 80.6248L469.818 79.5073L468.757 80.5678L469.875 81.6853C469.609 82.0841 469.423 82.5305 469.326 83H467.75V84.5H469.326C469.423 84.9695 469.609 85.4159 469.875 85.8147L468.757 86.9322L469.818 87.9927L470.935 86.8752C471.334 87.1411 471.781 87.3275 472.25 87.4242V89H473.75V87.4242C474.219 87.3275 474.666 87.1411 475.065 86.8753L476.182 87.9928L477.243 86.9323L476.125 85.8148C476.391 85.4159 476.577 84.9695 476.674 84.5H478.25ZM473 86C472.555 86 472.12 85.8681 471.75 85.6208C471.38 85.3736 471.092 85.0222 470.921 84.6111C470.751 84.1999 470.706 83.7475 470.793 83.3111C470.88 82.8746 471.094 82.4737 471.409 82.159C471.724 81.8444 472.125 81.6301 472.561 81.5433C472.998 81.4564 473.45 81.501 473.861 81.6713C474.272 81.8416 474.624 82.13 474.871 82.5C475.118 82.87 475.25 83.305 475.25 83.75C475.249 84.3466 475.012 84.9185 474.59 85.3403C474.168 85.7621 473.597 85.9994 473 86Z" fill="black"/>
</g>
<line x1="447" y1="56" x2="447" y2="104" stroke="#42BE65" stroke-width="4"/>
</g>
<rect x="24.5" y="56.5" width="207" height="366" fill="white" fill-opacity="0.01" style="mix-blend-mode:multiply"/>
<rect x="24.5" y="56.5" width="207" height="366" stroke="#24A148"/>
<rect x="25" y="57" width="206" height="365" fill="white"/>
<rect x="25" y="57" width="206" height="365" fill="white" style="mix-blend-mode:multiply"/>
<g clip-path="url(#clip4_3858_448)">
<path d="M85.18 85H80.742V83.516H82.03V76.712H80.742V75.228H85.18V76.712H83.878V83.516H85.18V85ZM87.2279 85V75.228H91.7499C93.3599 75.228 94.3399 76.222 94.3399 77.734C94.3399 79.218 93.4859 79.778 92.5899 79.834V79.918C93.4439 79.932 94.7039 80.534 94.7039 82.2C94.7039 83.768 93.6259 85 92.1839 85H87.2279ZM89.0759 80.814V83.432H91.6519C92.3519 83.432 92.7719 83.054 92.7719 82.368V81.892C92.7719 81.206 92.3519 80.814 91.6519 80.814H89.0759ZM89.0759 76.796V79.302H91.3579C92.0299 79.302 92.4219 78.91 92.4219 78.266V77.832C92.4219 77.174 92.0299 76.796 91.3579 76.796H89.0759ZM96.6711 85V75.228H98.7571L101.263 80.002H101.319L103.797 75.228H105.799V85H104.049V77.986H103.993L103.237 79.54L101.235 83.236L99.2331 79.54L98.4771 77.986H98.4211V85H96.6711ZM116.097 85H113.997L110.805 75.228H112.695L114.193 79.988L115.061 83.236H115.103L115.957 79.988L117.455 75.228H119.289L116.097 85ZM122.665 85H120.817V75.228H125.213C127.019 75.228 128.111 76.446 128.111 78.252C128.111 80.072 127.019 81.276 125.213 81.276H122.665V85ZM122.665 76.838V79.68H125.045C125.759 79.68 126.193 79.288 126.193 78.574V77.93C126.193 77.216 125.759 76.838 125.045 76.838H122.665ZM133.74 85.168C131.164 85.168 129.526 83.474 129.526 80.184C129.526 76.894 131.164 75.06 133.74 75.06C135.49 75.06 136.624 75.802 137.31 77.314L135.728 78.154C135.448 77.286 134.832 76.698 133.74 76.698C132.368 76.698 131.486 77.692 131.486 79.358V80.898C131.486 82.578 132.368 83.53 133.74 83.53C134.846 83.53 135.532 82.858 135.854 81.976L137.352 82.858C136.652 84.314 135.49 85.168 133.74 85.168ZM145.343 85.168C143.257 85.168 141.955 83.684 141.955 81.332C141.955 78.994 143.257 77.524 145.343 77.524C147.443 77.524 148.745 78.994 148.745 81.332C148.745 83.684 147.443 85.168 145.343 85.168ZM145.343 83.726C146.281 83.726 146.869 83.124 146.869 82.018V80.66C146.869 79.568 146.281 78.966 145.343 78.966C144.419 78.966 143.831 79.568 143.831 80.66V82.018C143.831 83.124 144.419 83.726 145.343 83.726ZM152.286 85H150.494V77.692H152.286V79.204H152.356C152.538 78.434 153.126 77.692 154.288 77.692H154.68V79.386H154.12C152.916 79.386 152.286 79.722 152.286 80.52V85ZM162.516 85.168C160.43 85.168 159.128 83.684 159.128 81.332C159.128 78.994 160.43 77.524 162.516 77.524C164.616 77.524 165.918 78.994 165.918 81.332C165.918 83.684 164.616 85.168 162.516 85.168ZM162.516 83.726C163.454 83.726 164.042 83.124 164.042 82.018V80.66C164.042 79.568 163.454 78.966 162.516 78.966C161.592 78.966 161.004 79.568 161.004 80.66V82.018C161.004 83.124 161.592 83.726 162.516 83.726ZM169.459 85H167.667V77.692H169.459V78.91H169.529C169.823 78.126 170.439 77.524 171.573 77.524C173.071 77.524 173.911 78.56 173.911 80.38V85H172.119V80.562C172.119 79.526 171.769 78.994 170.915 78.994C170.173 78.994 169.459 79.386 169.459 80.17V85ZM179.837 81.626H175.833V79.848H179.837V81.626ZM181.85 87.8V77.692H183.642V78.896H183.698C183.964 78.056 184.748 77.524 185.714 77.524C187.562 77.524 188.584 78.896 188.584 81.332C188.584 83.782 187.562 85.168 185.714 85.168C184.748 85.168 183.978 84.608 183.698 83.782H183.642V87.8H181.85ZM185.14 83.684C186.064 83.684 186.708 83.012 186.708 81.976V80.716C186.708 79.68 186.064 78.994 185.14 78.994C184.286 78.994 183.642 79.456 183.642 80.17V82.494C183.642 83.25 184.286 83.684 185.14 83.684ZM192.197 85H190.405V77.692H192.197V79.204H192.267C192.449 78.434 193.037 77.692 194.199 77.692H194.591V79.386H194.031C192.827 79.386 192.197 79.722 192.197 80.52V85ZM198.946 85.168C196.79 85.168 195.502 83.67 195.502 81.332C195.502 79.022 196.748 77.524 198.89 77.524C201.172 77.524 202.222 79.204 202.222 81.206V81.794H197.364V81.976C197.364 83.026 197.966 83.74 199.142 83.74C200.024 83.74 200.556 83.32 201.004 82.746L201.97 83.824C201.368 84.65 200.304 85.168 198.946 85.168ZM198.918 78.868C197.98 78.868 197.364 79.568 197.364 80.576V80.688H200.36V80.562C200.36 79.554 199.842 78.868 198.918 78.868ZM205.751 85H203.959V77.692H205.751V78.91H205.821C206.101 78.14 206.689 77.524 207.781 77.524C208.775 77.524 209.545 78.014 209.895 78.994H209.923C210.189 78.182 211.001 77.524 212.163 77.524C213.591 77.524 214.403 78.56 214.403 80.38V85H212.611V80.562C212.611 79.512 212.233 78.994 211.435 78.994C210.735 78.994 210.077 79.386 210.077 80.17V85H208.285V80.562C208.285 79.512 207.907 78.994 207.109 78.994C206.423 78.994 205.751 79.386 205.751 80.17V85Z" fill="black"/>
<rect width="24" height="24" transform="translate(40 68)" fill="white" fill-opacity="0.01" style="mix-blend-mode:multiply"/>
<path d="M46 88.25C46.4142 88.25 46.75 87.9142 46.75 87.5C46.75 87.0858 46.4142 86.75 46 86.75C45.5858 86.75 45.25 87.0858 45.25 87.5C45.25 87.9142 45.5858 88.25 46 88.25Z" fill="#161616"/>
<path d="M43.75 90.5H60.25C61.075 90.5 61.75 89.825 61.75 89V86C61.75 85.175 61.075 84.5 60.25 84.5H43.75C42.925 84.5 42.25 85.175 42.25 86V89C42.25 89.825 42.925 90.5 43.75 90.5ZM43.75 86H60.25V89H43.75V86Z" fill="#161616"/>
<path d="M57.25 83H46.75C44.2675 83 42.25 80.9825 42.25 78.5C42.25 76.2125 43.9675 74.315 46.1875 74.0375C46.8475 71.4125 49.2475 69.5 52 69.5C54.7525 69.5 57.1525 71.4125 57.8125 74.0375C60.0325 74.315 61.75 76.2125 61.75 78.5C61.75 80.9825 59.7325 83 57.25 83ZM46.7125 75.5C45.0775 75.5225 43.75 76.8575 43.75 78.5C43.75 80.1575 45.0925 81.5 46.75 81.5H57.25C58.9075 81.5 60.25 80.1575 60.25 78.5C60.25 76.8575 58.93 75.5225 57.295 75.5L57.205 75.5075L56.545 75.5225L56.455 74.8625C56.1325 72.6575 54.22 71 52 71C49.78 71 47.8675 72.6575 47.5525 74.8625L47.4625 75.5225L46.7125 75.5Z" fill="#161616"/>
<line x1="26" y1="56" x2="26" y2="104" stroke="#42BE65" stroke-width="4"/>
</g>
<rect width="308" height="163" transform="translate(465 116)" fill="white"/>
<rect x="465" y="116" width="308" height="163" fill="white"/>
<rect x="465" y="116" width="308" height="163" fill="#F2F4F8"/>
<g clip-path="url(#clip5_3858_448)">
<path d="M525.942 145.168C523.366 145.168 521.728 143.474 521.728 140.184C521.728 136.894 523.366 135.06 525.942 135.06C527.692 135.06 528.826 135.802 529.512 137.314L527.93 138.154C527.65 137.286 527.034 136.698 525.942 136.698C524.57 136.698 523.688 137.692 523.688 139.358V140.898C523.688 142.578 524.57 143.53 525.942 143.53C527.048 143.53 527.734 142.858 528.056 141.976L529.554 142.858C528.854 144.314 527.692 145.168 525.942 145.168ZM534.076 145.168C531.99 145.168 530.688 143.684 530.688 141.332C530.688 138.994 531.99 137.524 534.076 137.524C536.176 137.524 537.478 138.994 537.478 141.332C537.478 143.684 536.176 145.168 534.076 145.168ZM534.076 143.726C535.014 143.726 535.602 143.124 535.602 142.018V140.66C535.602 139.568 535.014 138.966 534.076 138.966C533.152 138.966 532.564 139.568 532.564 140.66V142.018C532.564 143.124 533.152 143.726 534.076 143.726ZM541.019 145H539.227V137.692H541.019V138.91H541.089C541.383 138.126 541.999 137.524 543.133 137.524C544.631 137.524 545.471 138.56 545.471 140.38V145H543.679V140.562C543.679 139.526 543.329 138.994 542.475 138.994C541.733 138.994 541.019 139.386 541.019 140.17V145ZM549.9 145C548.668 145 548.01 144.328 548.01 143.138V139.12H546.932V137.692H547.492C548.024 137.692 548.192 137.44 548.192 136.936V135.69H549.802V137.692H551.3V139.12H549.802V143.572H551.188V145H549.9ZM555.913 145.168C553.757 145.168 552.469 143.67 552.469 141.332C552.469 139.022 553.715 137.524 555.857 137.524C558.139 137.524 559.189 139.204 559.189 141.206V141.794H554.331V141.976C554.331 143.026 554.933 143.74 556.109 143.74C556.991 143.74 557.523 143.32 557.971 142.746L558.937 143.824C558.335 144.65 557.271 145.168 555.913 145.168ZM555.885 138.868C554.947 138.868 554.331 139.568 554.331 140.576V140.688H557.327V140.562C557.327 139.554 556.809 138.868 555.885 138.868ZM559.951 145L562.443 141.29L560.007 137.692H562.051L563.563 140.114H563.619L565.117 137.692H567.021L564.543 141.318L567.035 145H564.991L563.451 142.48H563.395L561.855 145H559.951ZM570.778 145C569.546 145 568.888 144.328 568.888 143.138V139.12H567.81V137.692H568.37C568.902 137.692 569.07 137.44 569.07 136.936V135.69H570.68V137.692H572.178V139.12H570.68V143.572H572.066V145H570.778ZM577.495 141.626H573.491V139.848H577.495V141.626ZM579.507 145V134.64H581.299V138.896H581.355C581.621 138.056 582.405 137.524 583.371 137.524C585.219 137.524 586.241 138.896 586.241 141.332C586.241 143.782 585.219 145.168 583.371 145.168C582.405 145.168 581.635 144.608 581.355 143.782H581.299V145H579.507ZM582.797 143.684C583.721 143.684 584.365 143.012 584.365 141.976V140.716C584.365 139.68 583.721 138.994 582.797 138.994C581.943 138.994 581.299 139.456 581.299 140.17V142.494C581.299 143.25 581.943 143.684 582.797 143.684ZM589.868 145.168C588.384 145.168 587.544 144.314 587.544 143.012C587.544 141.514 588.678 140.772 590.666 140.772H591.912V140.24C591.912 139.428 591.506 138.952 590.554 138.952C589.714 138.952 589.238 139.372 588.888 139.876L587.824 138.924C588.356 138.084 589.21 137.524 590.68 137.524C592.654 137.524 593.704 138.462 593.704 140.128V143.572H594.432V145H593.438C592.668 145 592.192 144.496 592.08 143.74H591.996C591.758 144.678 590.96 145.168 589.868 145.168ZM590.47 143.866C591.268 143.866 591.912 143.502 591.912 142.816V141.85H590.764C589.826 141.85 589.364 142.172 589.364 142.746V142.984C589.364 143.572 589.77 143.866 590.47 143.866ZM598.436 145.168C597.05 145.168 596.14 144.664 595.412 143.824L596.504 142.76C597.036 143.376 597.68 143.754 598.506 143.754C599.36 143.754 599.724 143.432 599.724 142.914C599.724 142.494 599.472 142.228 598.828 142.144L598.1 142.046C596.532 141.85 595.664 141.164 595.664 139.834C595.664 138.42 596.77 137.524 598.436 137.524C599.864 137.524 600.592 137.944 601.292 138.672L600.242 139.722C599.822 139.274 599.206 138.938 598.492 138.938C597.722 138.938 597.386 139.246 597.386 139.694C597.386 140.184 597.652 140.408 598.338 140.52L599.08 140.618C600.676 140.842 601.446 141.556 601.446 142.774C601.446 144.188 600.256 145.168 598.436 145.168ZM606.143 145.168C603.987 145.168 602.699 143.67 602.699 141.332C602.699 139.022 603.945 137.524 606.087 137.524C608.369 137.524 609.419 139.204 609.419 141.206V141.794H604.561V141.976C604.561 143.026 605.163 143.74 606.339 143.74C607.221 143.74 607.753 143.32 608.201 142.746L609.167 143.824C608.565 144.65 607.501 145.168 606.143 145.168ZM606.115 138.868C605.177 138.868 604.561 139.568 604.561 140.576V140.688H607.557V140.562C607.557 139.554 607.039 138.868 606.115 138.868ZM615.691 145V143.782H615.621C615.355 144.608 614.571 145.168 613.605 145.168C611.771 145.168 610.749 143.782 610.749 141.332C610.749 138.896 611.771 137.524 613.605 137.524C614.571 137.524 615.369 138.056 615.621 138.896H615.691V134.64H617.483V145H615.691ZM614.179 143.684C615.033 143.684 615.691 143.25 615.691 142.494V140.17C615.691 139.456 615.033 138.994 614.179 138.994C613.255 138.994 612.625 139.68 612.625 140.716V141.976C612.625 143.012 613.255 143.684 614.179 143.684ZM624.97 145H623.178V137.692H624.97V139.204H625.04C625.222 138.434 625.81 137.692 626.972 137.692H627.364V139.386H626.804C625.6 139.386 624.97 139.722 624.97 140.52V145ZM631.72 145.168C629.564 145.168 628.276 143.67 628.276 141.332C628.276 139.022 629.522 137.524 631.664 137.524C633.946 137.524 634.996 139.204 634.996 141.206V141.794H630.138V141.976C630.138 143.026 630.74 143.74 631.916 143.74C632.798 143.74 633.33 143.32 633.778 142.746L634.744 143.824C634.142 144.65 633.078 145.168 631.72 145.168ZM631.692 138.868C630.754 138.868 630.138 139.568 630.138 140.576V140.688H633.134V140.562C633.134 139.554 632.616 138.868 631.692 138.868ZM639.127 145.168C637.741 145.168 636.831 144.664 636.103 143.824L637.195 142.76C637.727 143.376 638.371 143.754 639.197 143.754C640.051 143.754 640.415 143.432 640.415 142.914C640.415 142.494 640.163 142.228 639.519 142.144L638.791 142.046C637.223 141.85 636.355 141.164 636.355 139.834C636.355 138.42 637.461 137.524 639.127 137.524C640.555 137.524 641.283 137.944 641.983 138.672L640.933 139.722C640.513 139.274 639.897 138.938 639.183 138.938C638.413 138.938 638.077 139.246 638.077 139.694C638.077 140.184 638.343 140.408 639.029 140.52L639.771 140.618C641.367 140.842 642.137 141.556 642.137 142.774C642.137 144.188 640.947 145.168 639.127 145.168ZM646.052 145C644.82 145 644.162 144.328 644.162 143.138V139.12H643.084V137.692H643.644C644.176 137.692 644.344 137.44 644.344 136.936V135.69H645.954V137.692H647.452V139.12H645.954V143.572H647.34V145H646.052ZM650.958 145H649.166V137.692H650.958V139.204H651.028C651.21 138.434 651.798 137.692 652.96 137.692H653.352V139.386H652.792C651.588 139.386 650.958 139.722 650.958 140.52V145ZM655.718 136.628C654.976 136.628 654.668 136.25 654.668 135.732V135.452C654.668 134.934 654.976 134.556 655.718 134.556C656.446 134.556 656.768 134.934 656.768 135.452V135.732C656.768 136.25 656.446 136.628 655.718 136.628ZM654.822 145V137.692H656.614V145H654.822ZM661.735 145.168C659.579 145.168 658.361 143.684 658.361 141.332C658.361 138.994 659.579 137.524 661.735 137.524C663.205 137.524 664.171 138.224 664.605 139.372L663.135 140.03C662.967 139.414 662.505 138.966 661.735 138.966C660.741 138.966 660.237 139.666 660.237 140.688V142.018C660.237 143.04 660.741 143.726 661.735 143.726C662.589 143.726 663.009 143.236 663.275 142.578L664.647 143.236C664.171 144.524 663.149 145.168 661.735 145.168ZM668.471 145C667.239 145 666.581 144.328 666.581 143.138V139.12H665.503V137.692H666.063C666.595 137.692 666.763 137.44 666.763 136.936V135.69H668.373V137.692H669.871V139.12H668.373V143.572H669.759V145H668.471ZM672.481 136.628C671.739 136.628 671.431 136.25 671.431 135.732V135.452C671.431 134.934 671.739 134.556 672.481 134.556C673.209 134.556 673.531 134.934 673.531 135.452V135.732C673.531 136.25 673.209 136.628 672.481 136.628ZM671.585 145V137.692H673.377V145H671.585ZM678.512 145.168C676.426 145.168 675.124 143.684 675.124 141.332C675.124 138.994 676.426 137.524 678.512 137.524C680.612 137.524 681.914 138.994 681.914 141.332C681.914 143.684 680.612 145.168 678.512 145.168ZM678.512 143.726C679.45 143.726 680.038 143.124 680.038 142.018V140.66C680.038 139.568 679.45 138.966 678.512 138.966C677.588 138.966 677 139.568 677 140.66V142.018C677 143.124 677.588 143.726 678.512 143.726ZM685.455 145H683.663V137.692H685.455V138.91H685.525C685.819 138.126 686.435 137.524 687.569 137.524C689.067 137.524 689.907 138.56 689.907 140.38V145H688.115V140.562C688.115 139.526 687.765 138.994 686.911 138.994C686.169 138.994 685.455 139.386 685.455 140.17V145ZM694.448 145.168C693.062 145.168 692.152 144.664 691.424 143.824L692.516 142.76C693.048 143.376 693.692 143.754 694.518 143.754C695.372 143.754 695.736 143.432 695.736 142.914C695.736 142.494 695.484 142.228 694.84 142.144L694.112 142.046C692.544 141.85 691.676 141.164 691.676 139.834C691.676 138.42 692.782 137.524 694.448 137.524C695.876 137.524 696.604 137.944 697.304 138.672L696.254 139.722C695.834 139.274 695.218 138.938 694.504 138.938C693.734 138.938 693.398 139.246 693.398 139.694C693.398 140.184 693.664 140.408 694.35 140.52L695.092 140.618C696.688 140.842 697.458 141.556 697.458 142.774C697.458 144.188 696.268 145.168 694.448 145.168Z" fill="black"/>
<rect width="24" height="24" transform="translate(481 128)" fill="white" fill-opacity="0.01" style="mix-blend-mode:multiply"/>
<path d="M489.25 145.385L487.75 143.884L486.692 144.942L489.25 147.5L493.75 143L492.693 141.943L489.25 145.385Z" fill="black"/>
<path d="M502 150.5H499V149H502V140H499V134C498.999 133.205 498.683 132.442 498.12 131.88C497.558 131.317 496.795 131.001 496 131V129.5C497.193 129.501 498.337 129.976 499.181 130.819C500.024 131.663 500.499 132.807 500.5 134V138.5H502C502.398 138.5 502.779 138.659 503.06 138.94C503.341 139.221 503.5 139.602 503.5 140V149C503.5 149.398 503.341 149.779 503.06 150.06C502.779 150.341 502.398 150.5 502 150.5Z" fill="black"/>
<path d="M496 138.5H494.5V134C494.5 132.807 494.026 131.662 493.182 130.818C492.338 129.974 491.193 129.5 490 129.5C488.807 129.5 487.662 129.974 486.818 130.818C485.974 131.662 485.5 132.807 485.5 134V138.5H484C483.602 138.5 483.221 138.658 482.939 138.939C482.658 139.221 482.5 139.602 482.5 140V149C482.5 149.398 482.658 149.779 482.939 150.061C483.221 150.342 483.602 150.5 484 150.5H496C496.398 150.5 496.779 150.342 497.061 150.061C497.342 149.779 497.5 149.398 497.5 149V140C497.5 139.602 497.342 139.221 497.061 138.939C496.779 138.658 496.398 138.5 496 138.5ZM487 134C487 133.204 487.316 132.441 487.879 131.879C488.441 131.316 489.204 131 490 131C490.796 131 491.559 131.316 492.121 131.879C492.684 132.441 493 133.204 493 134V138.5H487V134ZM496 149H484V140H496V149Z" fill="black"/>
</g>
<path d="M772.25 116.75H465.75V278.25H772.25V116.75Z" stroke="#878D96" stroke-width="1.5" stroke-linecap="round" stroke-linejoin="round" stroke-dasharray="0.01 4"/>
<rect width="69" height="95" transform="translate(584 167)" fill="white" fill-opacity="0.01" style="mix-blend-mode:multiply"/>
<path d="M602.5 167H634.5C638.918 167 642.5 170.582 642.5 175V207C642.5 211.418 638.918 215 634.5 215H602.5C598.082 215 594.5 211.418 594.5 207V175C594.5 170.582 598.082 167 602.5 167Z" fill="#0F62FE"/>
<rect width="24" height="24" transform="translate(606.5 179)" fill="white" fill-opacity="0.01"/>
<path d="M627.5 194H626V195.5H627.5V200H609.5V195.5H617V194H609.5C609.102 194 608.721 194.159 608.44 194.44C608.159 194.721 608 195.102 608 195.5V200C608 200.398 608.159 200.779 608.44 201.06C608.721 201.341 609.102 201.5 609.5 201.5H627.5C627.898 201.5 628.279 201.341 628.56 201.06C628.841 200.779 629 200.398 629 200V195.5C629 195.102 628.841 194.721 628.56 194.44C628.279 194.159 627.898 194 627.5 194Z" fill="white"/>
<path d="M611.75 198.5C612.164 198.5 612.5 198.164 612.5 197.75C612.5 197.336 612.164 197 611.75 197C611.336 197 611 197.336 611 197.75C611 198.164 611.336 198.5 611.75 198.5Z" fill="white"/>
<path d="M629 185H623V189.5H618.5V195.5H624.5V191H629V185ZM623 194H620V191H623V194ZM627.5 189.5H624.5V186.5H627.5V189.5Z" fill="white"/>
<path d="M620 186.5H614V180.5H620V186.5ZM615.5 185H618.5V182H615.5V185Z" fill="white"/>
<path d="M602.393 237.168C599.873 237.168 598.249 235.39 598.249 232.114C598.249 228.838 599.873 227.06 602.393 227.06C604.913 227.06 606.537 228.838 606.537 232.114C606.537 235.39 604.913 237.168 602.393 237.168ZM602.393 236.118C604.087 236.118 605.277 234.858 605.277 232.926V231.302C605.277 229.37 604.087 228.11 602.393 228.11C600.699 228.11 599.509 229.37 599.509 231.302V232.926C599.509 234.858 600.699 236.118 602.393 236.118ZM608.699 237V226.64H609.819V230.952H609.875C610.253 230.042 610.995 229.608 611.989 229.608C613.795 229.608 614.929 231.078 614.929 233.388C614.929 235.698 613.795 237.168 611.989 237.168C610.995 237.168 610.309 236.72 609.875 235.824H609.819V237H608.699ZM611.681 236.16C612.941 236.16 613.725 235.292 613.725 234.004V232.772C613.725 231.484 612.941 230.616 611.681 230.616C610.659 230.616 609.819 231.204 609.819 232.002V234.69C609.819 235.628 610.659 236.16 611.681 236.16ZM616.98 238.82V229.776H618.1V238.12C618.1 239.114 617.61 239.8 616.532 239.8H615.804V238.82H616.98ZM617.54 228.082C617.064 228.082 616.854 227.83 616.854 227.452V227.27C616.854 226.892 617.064 226.64 617.54 226.64C618.016 226.64 618.226 226.892 618.226 227.27V227.452C618.226 227.83 618.016 228.082 617.54 228.082ZM623.356 237.168C621.396 237.168 620.108 235.684 620.108 233.388C620.108 231.092 621.396 229.608 623.356 229.608C625.288 229.608 626.478 231.092 626.478 233.136V233.668H621.284V234.004C621.284 235.25 622.082 236.188 623.426 236.188C624.336 236.188 625.036 235.74 625.414 234.942L626.212 235.516C625.75 236.496 624.714 237.168 623.356 237.168ZM623.356 230.546C622.138 230.546 621.284 231.47 621.284 232.73V232.828H625.274V232.674C625.274 231.4 624.504 230.546 623.356 230.546ZM631.172 237.168C629.142 237.168 627.952 235.698 627.952 233.388C627.952 231.078 629.142 229.608 631.172 229.608C632.6 229.608 633.454 230.308 633.874 231.302L632.936 231.778C632.67 231.036 632.054 230.602 631.172 230.602C629.842 230.602 629.156 231.512 629.156 232.772V234.004C629.156 235.264 629.842 236.174 631.172 236.174C632.082 236.174 632.74 235.74 633.132 234.914L633.944 235.46C633.482 236.496 632.544 237.168 631.172 237.168ZM638.681 237H637.281C636.511 237 636.091 236.51 636.091 235.81V230.756H634.901V229.776H635.573C636.049 229.776 636.203 229.608 636.203 229.118V227.774H637.211V229.776H638.793V230.756H637.211V236.02H638.681V237ZM597.874 255.168C596.306 255.168 595.2 254.524 594.416 253.46L595.284 252.732C595.97 253.642 596.782 254.132 597.916 254.132C599.316 254.132 600.072 253.404 600.072 252.284C600.072 251.36 599.554 250.898 598.266 250.604L597.468 250.422C595.69 250.016 594.71 249.232 594.71 247.734C594.71 245.998 596.026 245.06 597.944 245.06C599.414 245.06 600.45 245.62 601.178 246.656L600.296 247.3C599.764 246.558 599.022 246.096 597.888 246.096C596.642 246.096 595.872 246.642 595.872 247.692C595.872 248.616 596.474 249.036 597.706 249.316L598.504 249.498C600.408 249.932 601.234 250.772 601.234 252.228C601.234 254.02 599.974 255.168 597.874 255.168ZM606.308 255H604.908C604.138 255 603.718 254.51 603.718 253.81V248.756H602.528V247.776H603.2C603.676 247.776 603.83 247.608 603.83 247.118V245.774H604.838V247.776H606.42V248.756H604.838V254.02H606.308V255ZM611.056 255.168C609.124 255.168 607.794 253.684 607.794 251.388C607.794 249.092 609.124 247.608 611.056 247.608C612.988 247.608 614.318 249.092 614.318 251.388C614.318 253.684 612.988 255.168 611.056 255.168ZM611.056 254.174C612.26 254.174 613.114 253.432 613.114 251.906V250.87C613.114 249.344 612.26 248.602 611.056 248.602C609.852 248.602 608.998 249.344 608.998 250.87V251.906C608.998 253.432 609.852 254.174 611.056 254.174ZM617.44 255H616.32V247.776H617.44V249.106H617.51C617.762 248.42 618.42 247.776 619.596 247.776H620.03V248.896H619.372C618.168 248.896 617.44 249.414 617.44 250.1V255ZM627.446 255H626.816C625.99 255 625.654 254.496 625.57 253.824H625.5C625.192 254.706 624.422 255.168 623.414 255.168C621.888 255.168 620.992 254.328 620.992 252.984C620.992 251.626 621.972 250.87 624.072 250.87H625.5V250.156C625.5 249.134 624.94 248.574 623.792 248.574C622.924 248.574 622.35 248.994 621.958 249.652L621.286 249.022C621.678 248.252 622.546 247.608 623.848 247.608C625.584 247.608 626.62 248.518 626.62 250.044V254.02H627.446V255ZM623.596 254.216C624.702 254.216 625.5 253.642 625.5 252.9V251.71H624.016C622.742 251.71 622.168 252.102 622.168 252.802V253.096C622.168 253.81 622.728 254.216 623.596 254.216ZM635.294 255.798C635.294 257.282 634.118 257.968 631.794 257.968C629.54 257.968 628.616 257.324 628.616 256.19C628.616 255.406 629.05 254.986 629.764 254.79V254.636C629.358 254.44 629.12 254.118 629.12 253.628C629.12 252.9 629.638 252.55 630.366 252.368V252.312C629.512 251.906 629.008 251.108 629.008 250.1C629.008 248.63 630.086 247.608 631.724 247.608C632.242 247.608 632.704 247.706 633.096 247.888V247.762C633.096 247.202 633.334 246.796 633.936 246.796H635.014V247.776H633.642V248.238C634.16 248.686 634.468 249.33 634.468 250.1C634.468 251.57 633.39 252.592 631.738 252.592C631.5 252.592 631.248 252.564 631.038 252.522C630.562 252.648 630.086 252.886 630.086 253.334C630.086 253.768 630.534 253.88 631.192 253.88H632.732C634.524 253.88 635.294 254.608 635.294 255.798ZM634.244 255.882C634.244 255.308 633.866 254.93 632.746 254.93H630.338C629.876 255.14 629.666 255.462 629.666 255.91C629.666 256.54 630.1 257.058 631.234 257.058H632.27C633.516 257.058 634.244 256.666 634.244 255.882ZM631.738 251.696C632.69 251.696 633.292 251.248 633.292 250.296V249.904C633.292 248.952 632.69 248.504 631.738 248.504C630.786 248.504 630.184 248.952 630.184 249.904V250.296C630.184 251.248 630.786 251.696 631.738 251.696ZM639.395 255.168C637.435 255.168 636.147 253.684 636.147 251.388C636.147 249.092 637.435 247.608 639.395 247.608C641.327 247.608 642.517 249.092 642.517 251.136V251.668H637.323V252.004C637.323 253.25 638.121 254.188 639.465 254.188C640.375 254.188 641.075 253.74 641.453 252.942L642.251 253.516C641.789 254.496 640.753 255.168 639.395 255.168ZM639.395 248.546C638.177 248.546 637.323 249.47 637.323 250.73V250.828H641.313V250.674C641.313 249.4 640.543 248.546 639.395 248.546Z" fill="black"/>
<rect width="69" height="95" transform="translate(93 167)" fill="white" fill-opacity="0.01" style="mix-blend-mode:multiply"/>
<rect x="103.5" y="167" width="48" height="48" rx="8" fill="black"/>
<path d="M111.5 167H143.5C147.918 167 151.5 170.582 151.5 175V207C151.5 211.418 147.918 215 143.5 215H111.5C107.082 215 103.5 211.418 103.5 207V175C103.5 170.582 107.082 167 111.5 167Z" fill="black"/>
<g clip-path="url(#clip6_3858_448)">
<mask id="mask0_3858_448" style="mask-type:luminance" maskUnits="userSpaceOnUse" x="117" y="185" width="21" height="17">
<path d="M131.997 201.5H118.5C117.673 201.5 117 200.827 117 200V195.5C117 194.673 117.673 194 118.5 194H131.997C132.824 194 133.497 194.673 133.497 195.5V200C133.497 200.827 132.824 201.5 131.997 201.5ZM118.5 195.5V200H131.998V195.5H118.5Z" fill="white"/>
<path d="M119.997 196.248H121.497V199.248H119.997V196.248ZM122.997 196.248H124.497V199.248H122.997V196.248ZM125.997 196.248H127.497V199.248H125.997V196.248ZM128.997 196.248H130.497V199.248H128.997V196.248Z" fill="white"/>
<path d="M137.997 192.5V186.5C137.997 185.673 137.324 185 136.497 185H131.999V186.5H136.497V194H136.5V197H133.649V198.5H136.5C137.327 198.5 138 197.827 138 197V192.5H137.997Z" fill="white"/>
<path d="M136.37 199.625H133.57V195.875H136.37V199.625Z" fill="url(#paint0_linear_3858_448)"/>
</mask>
<g mask="url(#mask0_3858_448)">
<path d="M115.5 179H139.5V203H115.5V179Z" fill="url(#paint1_linear_3858_448)"/>
</g>
<path d="M120 185H121.5V186.5H120V185ZM126 185H127.5V186.5H126V185ZM117 185H118.5V186.5H117V185Z" fill="white"/>
<path d="M126.75 191L125.175 190.25C123.9 189.65 123 188.3 123 186.875V182H130.5V186.875C130.5 188.3 129.675 189.65 128.325 190.25L126.75 191ZM124.5 183.5V186.875C124.5 187.775 125.025 188.525 125.775 188.9L126.75 189.35L127.725 188.9C128.475 188.525 129 187.7 129 186.875V183.5H124.5Z" fill="#F2F2F2"/>
</g>
<path d="M99.1688 237V227.228H102.445C104.881 227.228 106.449 228.852 106.449 232.114C106.449 235.376 104.881 237 102.445 237H99.1688ZM100.345 235.964H102.445C104.055 235.964 105.189 234.844 105.189 232.912V231.316C105.189 229.384 104.055 228.264 102.445 228.264H100.345V235.964ZM111.325 237.168C109.365 237.168 108.077 235.684 108.077 233.388C108.077 231.092 109.365 229.608 111.325 229.608C113.257 229.608 114.447 231.092 114.447 233.136V233.668H109.253V234.004C109.253 235.25 110.051 236.188 111.395 236.188C112.305 236.188 113.005 235.74 113.383 234.942L114.181 235.516C113.719 236.496 112.683 237.168 111.325 237.168ZM111.325 230.546C110.107 230.546 109.253 231.47 109.253 232.73V232.828H113.243V232.674C113.243 231.4 112.473 230.546 111.325 230.546ZM116.845 237V230.756H115.669V229.776H116.845V228.32C116.845 227.326 117.363 226.64 118.427 226.64H119.519V227.62H117.965V229.776H119.519V230.756H117.965V237H116.845ZM123.813 237.168C121.853 237.168 120.565 235.684 120.565 233.388C120.565 231.092 121.853 229.608 123.813 229.608C125.745 229.608 126.935 231.092 126.935 233.136V233.668H121.741V234.004C121.741 235.25 122.539 236.188 123.883 236.188C124.793 236.188 125.493 235.74 125.871 234.942L126.669 235.516C126.207 236.496 125.171 237.168 123.813 237.168ZM123.813 230.546C122.595 230.546 121.741 231.47 121.741 232.73V232.828H125.731V232.674C125.731 231.4 124.961 230.546 123.813 230.546ZM130.061 237H128.941V229.776H130.061V230.952H130.117C130.467 230.14 131.083 229.608 132.161 229.608C133.645 229.608 134.583 230.616 134.583 232.366V237H133.463V232.562C133.463 231.274 132.903 230.616 131.825 230.616C130.929 230.616 130.061 231.064 130.061 231.988V237ZM141.678 237V235.824H141.622C141.188 236.72 140.502 237.168 139.508 237.168C137.702 237.168 136.568 235.698 136.568 233.388C136.568 231.078 137.702 229.608 139.508 229.608C140.502 229.608 141.244 230.042 141.622 230.952H141.678V226.64H142.798V237H141.678ZM139.816 236.16C140.838 236.16 141.678 235.628 141.678 234.69V232.002C141.678 231.204 140.838 230.616 139.816 230.616C138.556 230.616 137.772 231.484 137.772 232.772V234.004C137.772 235.292 138.556 236.16 139.816 236.16ZM148.055 237.168C146.095 237.168 144.807 235.684 144.807 233.388C144.807 231.092 146.095 229.608 148.055 229.608C149.987 229.608 151.177 231.092 151.177 233.136V233.668H145.983V234.004C145.983 235.25 146.781 236.188 148.125 236.188C149.035 236.188 149.735 235.74 150.113 234.942L150.911 235.516C150.449 236.496 149.413 237.168 148.055 237.168ZM148.055 230.546C146.837 230.546 145.983 231.47 145.983 232.73V232.828H149.973V232.674C149.973 231.4 149.203 230.546 148.055 230.546ZM154.303 237H153.183V229.776H154.303V231.106H154.373C154.625 230.42 155.283 229.776 156.459 229.776H156.893V230.896H156.235C155.031 230.896 154.303 231.414 154.303 232.1V237Z" fill="black"/>
<rect width="86" height="94" transform="translate(476 297)" fill="white" fill-opacity="0.01" style="mix-blend-mode:multiply"/>
<rect x="495" y="297" width="48" height="48" rx="8" fill="#009D9A"/>
<path d="M503 297H535C539.418 297 543 300.582 543 305V337C543 341.418 539.418 345 535 345H503C498.582 345 495 341.418 495 337V305C495 300.582 498.582 297 503 297Z" fill="#009D9A"/>
<rect width="24" height="24" transform="translate(507 309)" fill="white" fill-opacity="0.01"/>
<path d="M529.5 322.5V326.625C529.5 327.75 528.825 328.725 527.775 329.25L526.5 329.85L525.225 329.25C524.175 328.8 523.5 327.75 523.5 326.625V322.5H529.5ZM531 321H522V326.625C522 328.275 522.975 329.85 524.55 330.6L526.5 331.5L528.45 330.6C530.025 329.85 531 328.35 531 326.625V321Z" fill="white"/>
<path d="M519 327.75H512.625C509.55 327.75 507 325.2 507 322.125C507 319.35 509.025 317.1 511.65 316.575C512.325 313.05 515.4 310.5 519 310.5C523.125 310.5 526.5 313.875 526.5 318H525C525 314.7 522.3 312 519 312C515.925 312 513.375 314.325 513 317.325V318H512.325C510.15 318.15 508.5 319.95 508.5 322.125C508.5 324.375 510.375 326.25 512.625 326.25H519V327.75Z" fill="white"/>
<path d="M505.106 367H503.874L502.894 364.116H498.946L497.966 367H496.776L500.192 357.228H501.69L505.106 367ZM502.6 363.08L500.948 358.32H500.878L499.226 363.08H502.6ZM509.46 367.168C507.43 367.168 506.24 365.698 506.24 363.388C506.24 361.078 507.43 359.608 509.46 359.608C510.888 359.608 511.742 360.308 512.162 361.302L511.224 361.778C510.958 361.036 510.342 360.602 509.46 360.602C508.13 360.602 507.444 361.512 507.444 362.772V364.004C507.444 365.264 508.13 366.174 509.46 366.174C510.37 366.174 511.028 365.74 511.42 364.914L512.232 365.46C511.77 366.496 510.832 367.168 509.46 367.168ZM516.579 367.168C514.549 367.168 513.359 365.698 513.359 363.388C513.359 361.078 514.549 359.608 516.579 359.608C518.007 359.608 518.861 360.308 519.281 361.302L518.343 361.778C518.077 361.036 517.461 360.602 516.579 360.602C515.249 360.602 514.563 361.512 514.563 362.772V364.004C514.563 365.264 515.249 366.174 516.579 366.174C517.489 366.174 518.147 365.74 518.539 364.914L519.351 365.46C518.889 366.496 517.951 367.168 516.579 367.168ZM523.726 367.168C521.766 367.168 520.478 365.684 520.478 363.388C520.478 361.092 521.766 359.608 523.726 359.608C525.658 359.608 526.848 361.092 526.848 363.136V363.668H521.654V364.004C521.654 365.25 522.452 366.188 523.796 366.188C524.706 366.188 525.406 365.74 525.784 364.942L526.582 365.516C526.12 366.496 525.084 367.168 523.726 367.168ZM523.726 360.546C522.508 360.546 521.654 361.47 521.654 362.73V362.828H525.644V362.674C525.644 361.4 524.874 360.546 523.726 360.546ZM531.024 367.168C529.694 367.168 528.812 366.608 528.168 365.754L528.966 365.11C529.526 365.81 530.198 366.216 531.108 366.216C532.06 366.216 532.62 365.782 532.62 365.04C532.62 364.48 532.312 364.046 531.36 363.906L530.786 363.822C529.456 363.626 528.462 363.08 528.462 361.736C528.462 360.308 529.568 359.608 531.038 359.608C532.2 359.608 532.97 360.042 533.558 360.77L532.816 361.442C532.494 360.994 531.878 360.56 530.954 360.56C530.03 360.56 529.54 360.994 529.54 361.68C529.54 362.38 530.03 362.66 530.926 362.8L531.486 362.884C533.082 363.122 533.698 363.822 533.698 364.914C533.698 366.314 532.676 367.168 531.024 367.168ZM537.924 367.168C536.594 367.168 535.712 366.608 535.068 365.754L535.866 365.11C536.426 365.81 537.098 366.216 538.008 366.216C538.96 366.216 539.52 365.782 539.52 365.04C539.52 364.48 539.212 364.046 538.26 363.906L537.686 363.822C536.356 363.626 535.362 363.08 535.362 361.736C535.362 360.308 536.468 359.608 537.938 359.608C539.1 359.608 539.87 360.042 540.458 360.77L539.716 361.442C539.394 360.994 538.778 360.56 537.854 360.56C536.93 360.56 536.44 360.994 536.44 361.68C536.44 362.38 536.93 362.66 537.826 362.8L538.386 362.884C539.982 363.122 540.598 363.822 540.598 364.914C540.598 366.314 539.576 367.168 537.924 367.168ZM478.56 385V375.228H480.128L482.928 380.492H482.998L485.812 375.228H487.324V385H486.176V376.768H486.106L485.28 378.406L482.942 382.662L480.604 378.406L479.778 376.768H479.708V385H478.56ZM495.849 385H495.219C494.393 385 494.057 384.496 493.973 383.824H493.903C493.595 384.706 492.825 385.168 491.817 385.168C490.291 385.168 489.395 384.328 489.395 382.984C489.395 381.626 490.375 380.87 492.475 380.87H493.903V380.156C493.903 379.134 493.343 378.574 492.195 378.574C491.327 378.574 490.753 378.994 490.361 379.652L489.689 379.022C490.081 378.252 490.949 377.608 492.251 377.608C493.987 377.608 495.023 378.518 495.023 380.044V384.02H495.849V385ZM491.999 384.216C493.105 384.216 493.903 383.642 493.903 382.9V381.71H492.419C491.145 381.71 490.571 382.102 490.571 382.802V383.096C490.571 383.81 491.131 384.216 491.999 384.216ZM498.727 385H497.607V377.776H498.727V378.952H498.783C499.133 378.14 499.749 377.608 500.827 377.608C502.311 377.608 503.249 378.616 503.249 380.366V385H502.129V380.562C502.129 379.274 501.569 378.616 500.491 378.616C499.595 378.616 498.727 379.064 498.727 379.988V385ZM511.604 385H510.974C510.148 385 509.812 384.496 509.728 383.824H509.658C509.35 384.706 508.58 385.168 507.572 385.168C506.046 385.168 505.15 384.328 505.15 382.984C505.15 381.626 506.13 380.87 508.23 380.87H509.658V380.156C509.658 379.134 509.098 378.574 507.95 378.574C507.082 378.574 506.508 378.994 506.116 379.652L505.444 379.022C505.836 378.252 506.704 377.608 508.006 377.608C509.742 377.608 510.778 378.518 510.778 380.044V384.02H511.604V385ZM507.754 384.216C508.86 384.216 509.658 383.642 509.658 382.9V381.71H508.174C506.9 381.71 506.326 382.102 506.326 382.802V383.096C506.326 383.81 506.886 384.216 507.754 384.216ZM519.453 385.798C519.453 387.282 518.277 387.968 515.953 387.968C513.699 387.968 512.775 387.324 512.775 386.19C512.775 385.406 513.209 384.986 513.923 384.79V384.636C513.517 384.44 513.279 384.118 513.279 383.628C513.279 382.9 513.797 382.55 514.525 382.368V382.312C513.671 381.906 513.167 381.108 513.167 380.1C513.167 378.63 514.245 377.608 515.883 377.608C516.401 377.608 516.863 377.706 517.255 377.888V377.762C517.255 377.202 517.493 376.796 518.095 376.796H519.173V377.776H517.801V378.238C518.319 378.686 518.627 379.33 518.627 380.1C518.627 381.57 517.549 382.592 515.897 382.592C515.659 382.592 515.407 382.564 515.197 382.522C514.721 382.648 514.245 382.886 514.245 383.334C514.245 383.768 514.693 383.88 515.351 383.88H516.891C518.683 383.88 519.453 384.608 519.453 385.798ZM518.403 385.882C518.403 385.308 518.025 384.93 516.905 384.93H514.497C514.035 385.14 513.825 385.462 513.825 385.91C513.825 386.54 514.259 387.058 515.393 387.058H516.429C517.675 387.058 518.403 386.666 518.403 385.882ZM515.897 381.696C516.849 381.696 517.451 381.248 517.451 380.296V379.904C517.451 378.952 516.849 378.504 515.897 378.504C514.945 378.504 514.343 378.952 514.343 379.904V380.296C514.343 381.248 514.945 381.696 515.897 381.696ZM523.553 385.168C521.593 385.168 520.305 383.684 520.305 381.388C520.305 379.092 521.593 377.608 523.553 377.608C525.485 377.608 526.675 379.092 526.675 381.136V381.668H521.481V382.004C521.481 383.25 522.279 384.188 523.623 384.188C524.533 384.188 525.233 383.74 525.611 382.942L526.409 383.516C525.947 384.496 524.911 385.168 523.553 385.168ZM523.553 378.546C522.335 378.546 521.481 379.47 521.481 380.73V380.828H525.471V380.674C525.471 379.4 524.701 378.546 523.553 378.546ZM529.801 385H528.681V377.776H529.801V378.952H529.857C530.179 378.21 530.683 377.608 531.803 377.608C532.755 377.608 533.623 378.042 534.015 379.078H534.043C534.309 378.294 535.009 377.608 536.241 377.608C537.711 377.608 538.593 378.616 538.593 380.366V385H537.473V380.562C537.473 379.288 536.983 378.616 535.891 378.616C535.009 378.616 534.197 379.064 534.197 379.988V385H533.077V380.562C533.077 379.274 532.587 378.616 531.523 378.616C530.641 378.616 529.801 379.064 529.801 379.988V385ZM543.78 385.168C541.82 385.168 540.532 383.684 540.532 381.388C540.532 379.092 541.82 377.608 543.78 377.608C545.712 377.608 546.902 379.092 546.902 381.136V381.668H541.708V382.004C541.708 383.25 542.506 384.188 543.85 384.188C544.76 384.188 545.46 383.74 545.838 382.942L546.636 383.516C546.174 384.496 545.138 385.168 543.78 385.168ZM543.78 378.546C542.562 378.546 541.708 379.47 541.708 380.73V380.828H545.698V380.674C545.698 379.4 544.928 378.546 543.78 378.546ZM550.027 385H548.907V377.776H550.027V378.952H550.083C550.433 378.14 551.049 377.608 552.127 377.608C553.611 377.608 554.549 378.616 554.549 380.366V385H553.429V380.562C553.429 379.274 552.869 378.616 551.791 378.616C550.895 378.616 550.027 379.064 550.027 379.988V385ZM560.02 385H558.62C557.85 385 557.43 384.51 557.43 383.81V378.756H556.24V377.776H556.912C557.388 377.776 557.542 377.608 557.542 377.118V375.774H558.55V377.776H560.132V378.756H558.55V384.02H560.02V385Z" fill="black"/>
<rect width="69" height="95" transform="translate(584 296)" fill="white" fill-opacity="0.01" style="mix-blend-mode:multiply"/>
<rect x="594.5" y="296" width="48" height="48" rx="8" fill="#A56EFF"/>
<path d="M602.5 296H634.5C638.918 296 642.5 299.582 642.5 304V336C642.5 340.418 638.918 344 634.5 344H602.5C598.082 344 594.5 340.418 594.5 336V304C594.5 299.582 598.082 296 602.5 296Z" fill="#A56EFF"/>
<rect width="24" height="24" transform="translate(606.5 308)" fill="white" fill-opacity="0.01"/>
<path d="M626 318.575V309.5H622.25V311H624.5V312.5H622.25V314H624.5V318.575C623.225 318.875 622.25 320.075 622.25 321.5C622.25 323.15 623.6 324.5 625.25 324.5C626.9 324.5 628.25 323.15 628.25 321.5C628.25 320.075 627.275 318.95 626 318.575ZM625.25 323C624.425 323 623.75 322.325 623.75 321.5C623.75 320.675 624.425 320 625.25 320C626.075 320 626.75 320.675 626.75 321.5C626.75 322.325 626.075 323 625.25 323Z" fill="white"/>
<path d="M617.75 331.25L613.625 328.85C611.075 327.35 609.5 324.65 609.5 321.725V311C609.5 310.175 610.175 309.5 611 309.5H620V311H611V321.725C611 324.125 612.275 326.375 614.375 327.575L617.75 329.6L621.125 327.575C621.95 327.05 622.7 326.45 623.225 325.625L624.425 326.45C623.75 327.425 622.85 328.25 621.8 328.85L617.75 331.25Z" fill="white"/>
<path d="M613.812 366L610.564 361.198L609.178 362.738V366H608.002V356.228H609.178V361.422H609.22L610.62 359.728L613.574 356.228H615.016L611.376 360.414L615.268 366H613.812ZM619.284 366.168C617.324 366.168 616.036 364.684 616.036 362.388C616.036 360.092 617.324 358.608 619.284 358.608C621.216 358.608 622.406 360.092 622.406 362.136V362.668H617.212V363.004C617.212 364.25 618.01 365.188 619.354 365.188C620.264 365.188 620.964 364.74 621.342 363.942L622.14 364.516C621.678 365.496 620.642 366.168 619.284 366.168ZM619.284 359.546C618.066 359.546 617.212 360.47 617.212 361.73V361.828H621.202V361.674C621.202 360.4 620.432 359.546 619.284 359.546ZM627.045 363.69L628.795 358.776H629.901L626.667 367.68C626.345 368.548 626.051 368.8 624.987 368.8H624.413V367.82H625.547L626.093 366.28L623.391 358.776H624.511L626.247 363.69L626.583 364.866H626.653L627.045 363.69ZM597.625 384H596.449V374.228H600.341C602.091 374.228 603.071 375.306 603.071 377.028C603.071 378.75 602.091 379.828 600.341 379.828H597.625V384ZM597.625 375.264V378.792H600.341C601.265 378.792 601.811 378.288 601.811 377.392V376.664C601.811 375.768 601.265 375.264 600.341 375.264H597.625ZM605.97 384H604.85V376.776H605.97V378.106H606.04C606.292 377.42 606.95 376.776 608.126 376.776H608.56V377.896H607.902C606.698 377.896 605.97 378.414 605.97 379.1V384ZM612.813 384.168C610.881 384.168 609.551 382.684 609.551 380.388C609.551 378.092 610.881 376.608 612.813 376.608C614.745 376.608 616.075 378.092 616.075 380.388C616.075 382.684 614.745 384.168 612.813 384.168ZM612.813 383.174C614.017 383.174 614.871 382.432 614.871 380.906V379.87C614.871 378.344 614.017 377.602 612.813 377.602C611.609 377.602 610.755 378.344 610.755 379.87V380.906C610.755 382.432 611.609 383.174 612.813 383.174ZM621.073 384H619.673C618.903 384 618.483 383.51 618.483 382.81V377.756H617.293V376.776H617.965C618.441 376.776 618.595 376.608 618.595 376.118V374.774H619.603V376.776H621.185V377.756H619.603V383.02H621.073V384ZM625.806 384.168C623.846 384.168 622.558 382.684 622.558 380.388C622.558 378.092 623.846 376.608 625.806 376.608C627.738 376.608 628.928 378.092 628.928 380.136V380.668H623.734V381.004C623.734 382.25 624.532 383.188 625.876 383.188C626.786 383.188 627.486 382.74 627.864 381.942L628.662 382.516C628.2 383.496 627.164 384.168 625.806 384.168ZM625.806 377.546C624.588 377.546 623.734 378.47 623.734 379.73V379.828H627.724V379.674C627.724 378.4 626.954 377.546 625.806 377.546ZM633.622 384.168C631.592 384.168 630.402 382.698 630.402 380.388C630.402 378.078 631.592 376.608 633.622 376.608C635.05 376.608 635.904 377.308 636.324 378.302L635.386 378.778C635.12 378.036 634.504 377.602 633.622 377.602C632.292 377.602 631.606 378.512 631.606 379.772V381.004C631.606 382.264 632.292 383.174 633.622 383.174C634.532 383.174 635.19 382.74 635.582 381.914L636.394 382.46C635.932 383.496 634.994 384.168 633.622 384.168ZM641.131 384H639.731C638.961 384 638.541 383.51 638.541 382.81V377.756H637.351V376.776H638.023C638.499 376.776 638.653 376.608 638.653 376.118V374.774H639.661V376.776H641.243V377.756H639.661V383.02H641.131V384Z" fill="black"/>
<rect width="69" height="95" transform="translate(684 296)" fill="white" fill-opacity="0.01" style="mix-blend-mode:multiply"/>
<rect x="694.5" y="296" width="48" height="48" rx="8" fill="#1192E8"/>
<path d="M702.5 296H734.5C738.918 296 742.5 299.582 742.5 304V336C742.5 340.418 738.918 344 734.5 344H702.5C698.082 344 694.5 340.418 694.5 336V304C694.5 299.582 698.082 296 702.5 296Z" fill="#1192E8"/>
<g clip-path="url(#clip7_3858_448)">
<rect width="24" height="24" transform="translate(706.5 308)" fill="white" fill-opacity="0.01"/>
<path d="M724.8 315.5C725.025 315.875 725.325 316.175 725.775 316.4L726.75 316.85L727.725 316.4C728.475 316.025 729 315.2 729 314.375V311H726.75V309.5H730.5V314.375C730.5 315.8 729.675 317.15 728.325 317.75L726.675 318.5L725.1 317.75C724.125 317.3 723.45 316.475 723.15 315.5H724.8Z" fill="#F2F4F8"/>
<path d="M724.5 312.5H718.5V314H724.5V312.5Z" fill="#F2F4F8"/>
<path d="M724.5 309.5H718.5V311H724.5V309.5Z" fill="#F2F4F8"/>
<path d="M727.5 320V324.5H709.5V312.5H717V311H709.5C708.675 311 708 311.675 708 312.5V324.5C708 325.325 708.675 326 709.5 326H715.5V329H712.5V330.5H724.5V329H721.5V326H727.5C728.325 326 729 325.325 729 324.5V320H727.5ZM720 329H717V326H720V329Z" fill="#F2F4F8"/>
</g>
<path d="M704.635 366.168C702.171 366.168 700.701 364.432 700.701 361.17C700.701 357.908 702.171 356.06 704.635 356.06C706.259 356.06 707.379 356.844 707.995 358.202L707.043 358.776C706.651 357.768 705.839 357.11 704.635 357.11C702.955 357.11 701.961 358.44 701.961 360.442V361.898C701.961 363.9 702.955 365.118 704.635 365.118C705.881 365.118 706.735 364.418 707.127 363.354L708.065 363.942C707.449 365.314 706.259 366.168 704.635 366.168ZM712.118 366H711.124C710.354 366 709.934 365.51 709.934 364.838V355.64H711.054V365.02H712.118V366ZM716.639 366.168C714.707 366.168 713.377 364.684 713.377 362.388C713.377 360.092 714.707 358.608 716.639 358.608C718.571 358.608 719.901 360.092 719.901 362.388C719.901 364.684 718.571 366.168 716.639 366.168ZM716.639 365.174C717.843 365.174 718.697 364.432 718.697 362.906V361.87C718.697 360.344 717.843 359.602 716.639 359.602C715.435 359.602 714.581 360.344 714.581 361.87V362.906C714.581 364.432 715.435 365.174 716.639 365.174ZM726.355 366V364.824H726.299C726.019 365.51 725.473 366.168 724.269 366.168C722.785 366.168 721.833 365.16 721.833 363.41V358.776H722.953V363.214C722.953 364.502 723.527 365.16 724.605 365.16C725.487 365.16 726.355 364.726 726.355 363.774V358.776H727.475V366H726.355ZM734.64 366V364.824H734.584C734.15 365.72 733.464 366.168 732.47 366.168C730.664 366.168 729.53 364.698 729.53 362.388C729.53 360.078 730.664 358.608 732.47 358.608C733.464 358.608 734.206 359.042 734.584 359.952H734.64V355.64H735.76V366H734.64ZM732.778 365.16C733.8 365.16 734.64 364.628 734.64 363.69V361.002C734.64 360.204 733.8 359.616 732.778 359.616C731.518 359.616 730.734 360.484 730.734 361.772V363.004C730.734 364.292 731.518 365.16 732.778 365.16ZM700.463 384H695.129V374.228H696.305V382.964H700.463V384ZM704.784 384.168C702.852 384.168 701.522 382.684 701.522 380.388C701.522 378.092 702.852 376.608 704.784 376.608C706.716 376.608 708.046 378.092 708.046 380.388C708.046 382.684 706.716 384.168 704.784 384.168ZM704.784 383.174C705.988 383.174 706.842 382.432 706.842 380.906V379.87C706.842 378.344 705.988 377.602 704.784 377.602C703.58 377.602 702.726 378.344 702.726 379.87V380.906C702.726 382.432 703.58 383.174 704.784 383.174ZM716.138 384.798C716.138 386.282 714.962 386.968 712.638 386.968C710.384 386.968 709.46 386.324 709.46 385.19C709.46 384.406 709.894 383.986 710.608 383.79V383.636C710.202 383.44 709.964 383.118 709.964 382.628C709.964 381.9 710.482 381.55 711.21 381.368V381.312C710.356 380.906 709.852 380.108 709.852 379.1C709.852 377.63 710.93 376.608 712.568 376.608C713.086 376.608 713.548 376.706 713.94 376.888V376.762C713.94 376.202 714.178 375.796 714.78 375.796H715.858V376.776H714.486V377.238C715.004 377.686 715.312 378.33 715.312 379.1C715.312 380.57 714.234 381.592 712.582 381.592C712.344 381.592 712.092 381.564 711.882 381.522C711.406 381.648 710.93 381.886 710.93 382.334C710.93 382.768 711.378 382.88 712.036 382.88H713.576C715.368 382.88 716.138 383.608 716.138 384.798ZM715.088 384.882C715.088 384.308 714.71 383.93 713.59 383.93H711.182C710.72 384.14 710.51 384.462 710.51 384.91C710.51 385.54 710.944 386.058 712.078 386.058H713.114C714.36 386.058 715.088 385.666 715.088 384.882ZM712.582 380.696C713.534 380.696 714.136 380.248 714.136 379.296V378.904C714.136 377.952 713.534 377.504 712.582 377.504C711.63 377.504 711.028 377.952 711.028 378.904V379.296C711.028 380.248 711.63 380.696 712.582 380.696ZM723.722 384.798C723.722 386.282 722.546 386.968 720.222 386.968C717.968 386.968 717.044 386.324 717.044 385.19C717.044 384.406 717.478 383.986 718.192 383.79V383.636C717.786 383.44 717.548 383.118 717.548 382.628C717.548 381.9 718.066 381.55 718.794 381.368V381.312C717.94 380.906 717.436 380.108 717.436 379.1C717.436 377.63 718.514 376.608 720.152 376.608C720.67 376.608 721.132 376.706 721.524 376.888V376.762C721.524 376.202 721.762 375.796 722.364 375.796H723.442V376.776H722.07V377.238C722.588 377.686 722.896 378.33 722.896 379.1C722.896 380.57 721.818 381.592 720.166 381.592C719.928 381.592 719.676 381.564 719.466 381.522C718.99 381.648 718.514 381.886 718.514 382.334C718.514 382.768 718.962 382.88 719.62 382.88H721.16C722.952 382.88 723.722 383.608 723.722 384.798ZM722.672 384.882C722.672 384.308 722.294 383.93 721.174 383.93H718.766C718.304 384.14 718.094 384.462 718.094 384.91C718.094 385.54 718.528 386.058 719.662 386.058H720.698C721.944 386.058 722.672 385.666 722.672 384.882ZM720.166 380.696C721.118 380.696 721.72 380.248 721.72 379.296V378.904C721.72 377.952 721.118 377.504 720.166 377.504C719.214 377.504 718.612 377.952 718.612 378.904V379.296C718.612 380.248 719.214 380.696 720.166 380.696ZM725.749 375.082C725.273 375.082 725.063 374.83 725.063 374.452V374.27C725.063 373.892 725.273 373.64 725.749 373.64C726.225 373.64 726.435 373.892 726.435 374.27V374.452C726.435 374.83 726.225 375.082 725.749 375.082ZM725.189 384V376.776H726.309V384H725.189ZM729.969 384H728.849V376.776H729.969V377.952H730.025C730.375 377.14 730.991 376.608 732.069 376.608C733.553 376.608 734.491 377.616 734.491 379.366V384H733.371V379.562C733.371 378.274 732.811 377.616 731.733 377.616C730.837 377.616 729.969 378.064 729.969 378.988V384ZM743.056 384.798C743.056 386.282 741.88 386.968 739.556 386.968C737.302 386.968 736.378 386.324 736.378 385.19C736.378 384.406 736.812 383.986 737.526 383.79V383.636C737.12 383.44 736.882 383.118 736.882 382.628C736.882 381.9 737.4 381.55 738.128 381.368V381.312C737.274 380.906 736.77 380.108 736.77 379.1C736.77 377.63 737.848 376.608 739.486 376.608C740.004 376.608 740.466 376.706 740.858 376.888V376.762C740.858 376.202 741.096 375.796 741.698 375.796H742.776V376.776H741.404V377.238C741.922 377.686 742.23 378.33 742.23 379.1C742.23 380.57 741.152 381.592 739.5 381.592C739.262 381.592 739.01 381.564 738.8 381.522C738.324 381.648 737.848 381.886 737.848 382.334C737.848 382.768 738.296 382.88 738.954 382.88H740.494C742.286 382.88 743.056 383.608 743.056 384.798ZM742.006 384.882C742.006 384.308 741.628 383.93 740.508 383.93H738.1C737.638 384.14 737.428 384.462 737.428 384.91C737.428 385.54 737.862 386.058 738.996 386.058H740.032C741.278 386.058 742.006 385.666 742.006 384.882ZM739.5 380.696C740.452 380.696 741.054 380.248 741.054 379.296V378.904C741.054 377.952 740.452 377.504 739.5 377.504C738.548 377.504 737.946 377.952 737.946 378.904V379.296C737.946 380.248 738.548 380.696 739.5 380.696Z" fill="black"/>
<rect width="406" height="8" transform="matrix(-1 0 0 -1 575 202)" fill="white" fill-opacity="0.01" style="mix-blend-mode:multiply"/>
<rect width="399" height="0" transform="matrix(-1 0 0 -1 568 198)" fill="white" fill-opacity="0.01" style="mix-blend-mode:multiply"/>
<path d="M568 198L169 198" stroke="black" stroke-dasharray="8 4"/>
<rect width="8" height="8" transform="matrix(1 0 0 -1 567 202)" fill="white" fill-opacity="0.01" style="mix-blend-mode:multiply"/>
<path d="M567 202L575 198L567 194V202Z" fill="black"/>
<defs>
<linearGradient id="paint0_linear_3858_448" x1="136.37" y1="197.75" x2="133.569" y2="197.75" gradientUnits="userSpaceOnUse">
<stop stop-opacity="0"/>
<stop offset="0.9"/>
</linearGradient>
<linearGradient id="paint1_linear_3858_448" x1="115.5" y1="203" x2="139.5" y2="179" gradientUnits="userSpaceOnUse">
<stop offset="0.1" stop-color="white"/>
<stop offset="0.9" stop-color="#D9D9D9"/>
</linearGradient>
<clipPath id="clip0_3858_448">
<rect width="817" height="48" fill="white"/>
</clipPath>
<clipPath id="clip1_3858_448">
<rect width="24" height="24" fill="white" transform="translate(16 12)"/>
</clipPath>
<clipPath id="clip2_3858_448">
<rect width="348" height="48" fill="white" transform="translate(445 56)"/>
</clipPath>
<clipPath id="clip3_3858_448">
<rect width="24" height="24" fill="white" transform="translate(461 68)"/>
</clipPath>
<clipPath id="clip4_3858_448">
<rect width="208" height="48" fill="white" transform="translate(24 56)"/>
</clipPath>
<clipPath id="clip5_3858_448">
<rect width="308" height="48" fill="white" transform="translate(465 116)"/>
</clipPath>
<clipPath id="clip6_3858_448">
<rect width="24" height="24" fill="white" transform="translate(115.5 179)"/>
</clipPath>
<clipPath id="clip7_3858_448">
<rect width="24" height="24" fill="white" transform="translate(706.5 308)"/>
</clipPath>
</defs>
</svg>
